<svg aria-roledescription="mindmap" xmlns="http://www.w3.org/2000/svg" width="720px" id="graph-div" height="410px" xmlns:xlink="http://www.w3.org/1999/xlink"><style>@import url("https://cdnjs.cloudflare.com/ajax/libs/font-awesome/6.2.1/css/all.min.css");'</style><style>#graph-div{font-family:"trebuchet ms",verdana,arial,sans-serif;font-size:16px;fill:#ccc;}#graph-div .error-icon{fill:#a44141;}#graph-div .error-text{fill:#ddd;stroke:#ddd;}#graph-div .edge-thickness-normal{stroke-width:2px;}#graph-div .edge-thickness-thick{stroke-width:3.5px;}#graph-div .edge-pattern-solid{stroke-dasharray:0;}#graph-div .edge-pattern-dashed{stroke-dasharray:3;}#graph-div .edge-pattern-dotted{stroke-dasharray:2;}#graph-div .marker{fill:lightgrey;stroke:lightgrey;}#graph-div .marker.cross{stroke:lightgrey;}#graph-div svg{font-family:"trebuchet ms",verdana,arial,sans-serif;font-size:16px;}#graph-div .edge{stroke-width:3;}#graph-div .section--1 rect,#graph-div .section--1 path,#graph-div .section--1 circle,#graph-div .section--1 polygon,#graph-div .section--1 path{fill:#1f2020;}#graph-div .section--1 text{fill:lightgrey;}#graph-div .node-icon--1{font-size:40px;color:lightgrey;}#graph-div .section-edge--1{stroke:#1f2020;}#graph-div .edge-depth--1{stroke-width:17;}#graph-div .section--1 line{stroke:#e0dfdf;stroke-width:3;}#graph-div .disabled,#graph-div .disabled circle,#graph-div .disabled text{fill:lightgray;}#graph-div .disabled text{fill:#efefef;}#graph-div .section-0 rect,#graph-div .section-0 path,#graph-div .section-0 circle,#graph-div .section-0 polygon,#graph-div .section-0 path{fill:#0b0000;}#graph-div .section-0 text{fill:lightgrey;}#graph-div .node-icon-0{font-size:40px;color:lightgrey;}#graph-div .section-edge-0{stroke:#0b0000;}#graph-div .edge-depth-0{stroke-width:14;}#graph-div .section-0 line{stroke:#f4ffff;stroke-width:3;}#graph-div .disabled,#graph-div .disabled circle,#graph-div .disabled text{fill:lightgray;}#graph-div .disabled text{fill:#efefef;}#graph-div .section-1 rect,#graph-div .section-1 path,#graph-div .section-1 circle,#graph-div .section-1 polygon,#graph-div .section-1 path{fill:#4d1037;}#graph-div .section-1 text{fill:lightgrey;}#graph-div .node-icon-1{font-size:40px;color:lightgrey;}#graph-div .section-edge-1{stroke:#4d1037;}#graph-div .edge-depth-1{stroke-width:11;}#graph-div .section-1 line{stroke:#b2efc8;stroke-width:3;}#graph-div .disabled,#graph-div .disabled circle,#graph-div .disabled text{fill:lightgray;}#graph-div .disabled text{fill:#efefef;}#graph-div .section-2 rect,#graph-div .section-2 path,#graph-div .section-2 circle,#graph-div .section-2 polygon,#graph-div .section-2 path{fill:#3f5258;}#graph-div .section-2 text{fill:lightgrey;}#graph-div .node-icon-2{font-size:40px;color:lightgrey;}#graph-div .section-edge-2{stroke:#3f5258;}#graph-div .edge-depth-2{stroke-width:8;}#graph-div .section-2 line{stroke:#c0ada7;stroke-width:3;}#graph-div .disabled,#graph-div .disabled circle,#graph-div .disabled text{fill:lightgray;}#graph-div .disabled text{fill:#efefef;}#graph-div .section-3 rect,#graph-div .section-3 path,#graph-div .section-3 circle,#graph-div .section-3 polygon,#graph-div .section-3 path{fill:#4f2f1b;}#graph-div .section-3 text{fill:lightgrey;}#graph-div .node-icon-3{font-size:40px;color:lightgrey;}#graph-div .section-edge-3{stroke:#4f2f1b;}#graph-div .edge-depth-3{stroke-width:5;}#graph-div .section-3 line{stroke:#b0d0e4;stroke-width:3;}#graph-div .disabled,#graph-div .disabled circle,#graph-div .disabled text{fill:lightgray;}#graph-div .disabled text{fill:#efefef;}#graph-div .section-4 rect,#graph-div .section-4 path,#graph-div .section-4 circle,#graph-div .section-4 polygon,#graph-div .section-4 path{fill:#6e0a0a;}#graph-div .section-4 text{fill:lightgrey;}#graph-div .node-icon-4{font-size:40px;color:lightgrey;}#graph-div .section-edge-4{stroke:#6e0a0a;}#graph-div .edge-depth-4{stroke-width:2;}#graph-div .section-4 line{stroke:#91f5f5;stroke-width:3;}#graph-div .disabled,#graph-div .disabled circle,#graph-div .disabled text{fill:lightgray;}#graph-div .disabled text{fill:#efefef;}#graph-div .section-5 rect,#graph-div .section-5 path,#graph-div .section-5 circle,#graph-div .section-5 polygon,#graph-div .section-5 path{fill:#3b0048;}#graph-div .section-5 text{fill:lightgrey;}#graph-div .node-icon-5{font-size:40px;color:lightgrey;}#graph-div .section-edge-5{stroke:#3b0048;}#graph-div .edge-depth-5{stroke-width:-1;}#graph-div .section-5 line{stroke:#c4ffb7;stroke-width:3;}#graph-div .disabled,#graph-div .disabled circle,#graph-div .disabled text{fill:lightgray;}#graph-div .disabled text{fill:#efefef;}#graph-div .section-6 rect,#graph-div .section-6 path,#graph-div .section-6 circle,#graph-div .section-6 polygon,#graph-div .section-6 path{fill:#995a01;}#graph-div .section-6 text{fill:lightgrey;}#graph-div .node-icon-6{font-size:40px;color:lightgrey;}#graph-div .section-edge-6{stroke:#995a01;}#graph-div .edge-depth-6{stroke-width:-4;}#graph-div .section-6 line{stroke:#66a5fe;stroke-width:3;}#graph-div .disabled,#graph-div .disabled circle,#graph-div .disabled text{fill:lightgray;}#graph-div .disabled text{fill:#efefef;}#graph-div .section-7 rect,#graph-div .section-7 path,#graph-div .section-7 circle,#graph-div .section-7 polygon,#graph-div .section-7 path{fill:#154706;}#graph-div .section-7 text{fill:lightgrey;}#graph-div .node-icon-7{font-size:40px;color:lightgrey;}#graph-div .section-edge-7{stroke:#154706;}#graph-div .edge-depth-7{stroke-width:-7;}#graph-div .section-7 line{stroke:#eab8f9;stroke-width:3;}#graph-div .disabled,#graph-div .disabled circle,#graph-div .disabled text{fill:lightgray;}#graph-div .disabled text{fill:#efefef;}#graph-div .section-8 rect,#graph-div .section-8 path,#graph-div .section-8 circle,#graph-div .section-8 polygon,#graph-div .section-8 path{fill:#161722;}#graph-div .section-8 text{fill:lightgrey;}#graph-div .node-icon-8{font-size:40px;color:lightgrey;}#graph-div .section-edge-8{stroke:#161722;}#graph-div .edge-depth-8{stroke-width:-10;}#graph-div .section-8 line{stroke:#e9e8dd;stroke-width:3;}#graph-div .disabled,#graph-div .disabled circle,#graph-div .disabled text{fill:lightgray;}#graph-div .disabled text{fill:#efefef;}#graph-div .section-9 rect,#graph-div .section-9 path,#graph-div .section-9 circle,#graph-div .section-9 polygon,#graph-div .section-9 path{fill:#00296f;}#graph-div .section-9 text{fill:lightgrey;}#graph-div .node-icon-9{font-size:40px;color:lightgrey;}#graph-div .section-edge-9{stroke:#00296f;}#graph-div .edge-depth-9{stroke-width:-13;}#graph-div .section-9 line{stroke:#ffd690;stroke-width:3;}#graph-div .disabled,#graph-div .disabled circle,#graph-div .disabled text{fill:lightgray;}#graph-div .disabled text{fill:#efefef;}#graph-div .section-10 rect,#graph-div .section-10 path,#graph-div .section-10 circle,#graph-div .section-10 polygon,#graph-div .section-10 path{fill:#01629c;}#graph-div .section-10 text{fill:lightgrey;}#graph-div .node-icon-10{font-size:40px;color:lightgrey;}#graph-div .section-edge-10{stroke:#01629c;}#graph-div .edge-depth-10{stroke-width:-16;}#graph-div .section-10 line{stroke:#fe9d63;stroke-width:3;}#graph-div .disabled,#graph-div .disabled circle,#graph-div .disabled text{fill:lightgray;}#graph-div .disabled text{fill:#efefef;}#graph-div .section-root rect,#graph-div .section-root path,#graph-div .section-root circle,#graph-div .section-root polygon{fill:hsl(180, 1.5873015873%, 48.3529411765%);}#graph-div .section-root text{fill:undefined;}#graph-div .icon-container{height:100%;display:flex;justify-content:center;align-items:center;}#graph-div .edge{fill:none;}#graph-div :root{--mermaid-font-family:"trebuchet ms",verdana,arial,sans-serif;}</style><g></g><g></g><g class="mindmap-edges"><path class="edge section-edge--1 edge-depth-1" d="M 245.43969683697102,119.74051321498044 L 208.17684457679866,95.25970100342923 L170.9139923166263,70.77888879187802"></path><path class="edge section-edge--1 edge-depth-1" d="M 272.3977241099676,123.85110707481581 L 323.25459681027087,109.3022642442007 L374.1114695105741,94.75342141358558"></path><path class="edge section-edge--1 edge-depth-1" d="M 243.00138247102208,128.8449000476614 L 175.66389977164567,132.74883272419734 L108.32641707226927,136.65276540073327"></path><path class="edge section-edge--1 edge-depth-1" d="M 260.6402365236937,113.21518201092817 L 266.4651994895422,80.93836174381548 L272.2901624553907,48.661541476702766"></path><path class="edge section-edge--1 edge-depth-1" d="M 246.83161087237212,138.01650971595583 L 217.29298993753594,164.6267732741113 L187.75436900269975,191.23703683226674"></path><path class="edge section-edge--1 edge-depth-0" d="M 329.00803716849924,198.80572310629844 L 298.80301399878397,168.68693728363175 L268.5979908290687,138.56815146096505"></path><path class="edge section-edge-0 edge-depth-1" d="M 509.9090764074847,256.859271246342 L 538.0216330979687,285.0201564710203 L566.1341897884527,313.1810416956986"></path><path class="edge section-edge-0 edge-depth-1" d="M 514.3078912486341,246.57655141260062 L 575.2625304173883,247.93002547391725 L636.2171695861426,249.2834995352339"></path><path class="edge section-edge-0 edge-depth-1" d="M 490.406980716937,258.3145201337701 L 468.9541259824516,287.39569816687776 L447.5012712479662,316.47687619998544"></path><path class="edge section-edge-0 edge-depth-1" d="M 510.3208340747865,236.05550785341387 L 540.2991460795521,208.31330591886987 L570.2774580843177,180.57110398432587"></path><path class="edge section-edge-0 edge-depth-1" d="M 496.3643373763125,231.53595692401473 L 490.30768856249244,201.31157738351897 L484.2510397486724,171.08719784302326"></path><path class="edge section-edge-0 edge-depth-0" d="M 354.2457237069848,212.76976279287652 L 419.470689335875,227.82035770172152 L484.69565496476525,242.87095261056652"></path><path class="edge section-edge-1 edge-depth-1" d="M 249.49781964452188,298.95851918219716 L 247.43583287035972,330.0213265430791 L245.37384609619755,361.08413390396106"></path><path class="edge section-edge-1 edge-depth-1" d="M 235.69342260199758,286.4452942411089 L 174.33700989740282,296.61959232421543 L112.98059719280806,306.79389040732195"></path><path class="edge section-edge-1 edge-depth-0" d="M 328.1263157820569,219.0236799951932 L 295.0605710954475,246.69430496501877 L261.99482640883804,274.3649299348444"></path></g><g class="mindmap-nodes"><g transform="translate(261.9266659542766, 190.49715107963254)" class="mindmap-node section-root"><g><path d="M0 0 a23.310937499999998,23.310937499999998 0 0,1 38.8515625,-15.540625
      a54.3921875,54.3921875 1 0,1 62.1625,-15.540625
      a38.8515625,38.8515625 1 0,1 54.3921875,31.08125

      a23.310937499999998,23.310937499999998 1 0,1 23.310937499999998,13.229999999999999
      a31.08125,31.08125 1 0,1 -23.310937499999998,24.57

      a38.8515625,23.310937499999998 1 0,1 -38.8515625,23.310937499999998
      a54.3921875,54.3921875 1 0,1 -77.703125,0
      a23.310937499999998,23.310937499999998 1 0,1 -38.8515625,-23.310937499999998

      a23.310937499999998,23.310937499999998 1 0,1 -15.540625,-13.229999999999999
      a31.08125,31.08125 1 0,1 15.540625,-24.57

    H0 V0 Z" class="node-bkg node-cloud" id="node-0"></path></g><g transform="translate(77.703125, 5)"><text text-anchor="middle" dominant-baseline="middle" alignment-baseline="middle" dy="1em"><tspan dy="1em" x="0">kubernetes   secrets</tspan></text></g></g><g transform="translate(232.02311204329135, 109.07672348763094)" class="mindmap-node section-root"><g><path d="M0 32.8 v-27.799999999999997 q0,-5 5,-5 h41.90625 q5,0 5,5 v32.8 H0 Z" class="node-bkg node-no-border" id="node-1"></path><line y2="37.8" x2="51.90625" y1="37.8" x1="0" class="node-line--1"></line></g><g transform="translate(25.953125, 5)"><text text-anchor="middle" dominant-baseline="middle" alignment-baseline="middle" dy="1em"><tspan dy="1em" x="0">etcd</tspan></text></g></g><g transform="translate(131.74463961030597, 43.6426785192275)" class="mindmap-node section-root"><g><path d="M0 32.8 v-27.799999999999997 q0,-5 5,-5 h43.265625 q5,0 5,5 v32.8 H0 Z" class="node-bkg node-no-border" id="node-2"></path><line y2="37.8" x2="53.265625" y1="37.8" x1="0" class="node-line--1"></line></g><g transform="translate(26.6328125, 5)"><text text-anchor="middle" dominant-baseline="middle" alignment-baseline="middle" dy="1em"><tspan dy="1em" x="0">Auth</tspan></text></g></g><g transform="translate(337.7126440772504, 71.72780500077045)" class="mindmap-node section-root"><g><path d="M0 32.8 v-27.799999999999997 q0,-5 5,-5 h91.640625 q5,0 5,5 v32.8 H0 Z" class="node-bkg node-no-border" id="node-3"></path><line y2="37.8" x2="101.640625" y1="37.8" x1="0" class="node-line--1"></line></g><g transform="translate(50.8203125, 5)"><text text-anchor="middle" dominant-baseline="middle" alignment-baseline="middle" dy="1em"><tspan dy="1em" x="0">File   System</tspan></text></g></g><g transform="translate(15, 118.62094196076373)" class="mindmap-node section-root"><g><path d="M0 32.8 v-27.799999999999997 q0,-5 5,-5 h146.703125 q5,0 5,5 v32.8 H0 Z" class="node-bkg node-no-border" id="node-4"></path><line y2="37.8" x2="156.703125" y1="37.8" x1="0" class="node-line--1"></line></g><g transform="translate(78.3515625, 5)"><text text-anchor="middle" dominant-baseline="middle" alignment-baseline="middle" dy="1em"><tspan dy="1em" x="0">Patching   Life   Cycle</tspan></text></g></g><g transform="translate(226.66509943579308, 15)" class="mindmap-node section-root"><g><path d="M0 32.8 v-27.799999999999997 q0,-5 5,-5 h86.578125 q5,0 5,5 v32.8 H0 Z" class="node-bkg node-no-border" id="node-5"></path><line y2="37.8" x2="96.578125" y1="37.8" x1="0" class="node-line--1"></line></g><g transform="translate(48.2890625, 5)"><text text-anchor="middle" dominant-baseline="middle" alignment-baseline="middle" dy="1em"><tspan dy="1em" x="0">Pod   Access</tspan></text></g></g><g transform="translate(154.06286783178052, 182.37682306059162)" class="mindmap-node section-root"><g><path d="M0 32.8 v-27.799999999999997 q0,-5 5,-5 h35.09375 q5,0 5,5 v32.8 H0 Z" class="node-bkg node-no-border" id="node-6"></path><line y2="37.8" x2="45.09375" y1="37.8" x1="0" class="node-line--1"></line></g><g transform="translate(22.546875, 5)"><text text-anchor="middle" dominant-baseline="middle" alignment-baseline="middle" dy="1em"><tspan dy="1em" x="0">TLS</tspan></text></g></g><g transform="translate(477.90533771747346, 227.34356432381048)" class="mindmap-node section-0"><g><path d="M0 32.8 v-27.799999999999997 q0,-5 5,-5 h32.8125 q5,0 5,5 v32.8 H0 Z" class="node-bkg node-no-border" id="node-7"></path><line y2="37.8" x2="42.8125" y1="37.8" x1="0" class="node-line-0"></line></g><g transform="translate(21.40625, 5)"><text text-anchor="middle" dominant-baseline="middle" alignment-baseline="middle" dy="1em"><tspan dy="1em" x="0">API</tspan></text></g></g><g transform="translate(550.0988659784639, 304.89674861823016)" class="mindmap-node section-0"><g><path d="M0 32.8 v-27.799999999999997 q0,-5 5,-5 h43.265625 q5,0 5,5 v32.8 H0 Z" class="node-bkg node-no-border" id="node-8"></path><line y2="37.8" x2="53.265625" y1="37.8" x1="0" class="node-line-0"></line></g><g transform="translate(26.6328125, 5)"><text text-anchor="middle" dominant-baseline="middle" alignment-baseline="middle" dy="1em"><tspan dy="1em" x="0">Auth</tspan></text></g></g><g transform="translate(579.6900356173032, 230.71648662402401)" class="mindmap-node section-0"><g><path d="M0 32.8 v-27.799999999999997 q0,-5 5,-5 h133.046875 q5,0 5,5 v32.8 H0 Z" class="node-bkg node-no-border" id="node-9"></path><line y2="37.8" x2="143.046875" y1="37.8" x1="0" class="node-line-0"></line></g><g transform="translate(71.5234375, 5)"><text text-anchor="middle" dominant-baseline="middle" alignment-baseline="middle" dy="1em"><tspan dy="1em" x="0">Config   Hardening</tspan></text></g></g><g transform="translate(370.91697674742977, 309.6478320099451)" class="mindmap-node section-0"><g><path d="M0 32.8 v-27.799999999999997 q0,-5 5,-5 h125.359375 q5,0 5,5 v32.8 H0 Z" class="node-bkg node-no-border" id="node-10"></path><line y2="37.8" x2="135.359375" y1="37.8" x1="0" class="node-line-0"></line></g><g transform="translate(67.6796875, 5)"><text text-anchor="middle" dominant-baseline="middle" alignment-baseline="middle" dy="1em"><tspan dy="1em" x="0">Patch   Life   Cycle</tspan></text></g></g><g transform="translate(552.5992044416307, 151.48304751392925)" class="mindmap-node section-0"><g><path d="M0 32.8 v-27.799999999999997 q0,-5 5,-5 h47.375 q5,0 5,5 v32.8 H0 Z" class="node-bkg node-no-border" id="node-11"></path><line y2="37.8" x2="57.375" y1="37.8" x1="0" class="node-line-0"></line></g><g transform="translate(28.6875, 5)"><text text-anchor="middle" dominant-baseline="middle" alignment-baseline="middle" dy="1em"><tspan dy="1em" x="0">RBAC</tspan></text></g></g><g transform="translate(458.75691440751143, 137.4795904432275)" class="mindmap-node section-0"><g><path d="M0 32.8 v-27.799999999999997 q0,-5 5,-5 h35.09375 q5,0 5,5 v32.8 H0 Z" class="node-bkg node-no-border" id="node-12"></path><line y2="37.8" x2="45.09375" y1="37.8" x1="0" class="node-line-0"></line></g><g transform="translate(22.546875, 5)"><text text-anchor="middle" dominant-baseline="middle" alignment-baseline="middle" dy="1em"><tspan dy="1em" x="0">TLS</tspan></text></g></g><g transform="translate(186.94447623661836, 265.09145885040505)" class="mindmap-node section-1"><g><path d="M0 32.8 v-27.799999999999997 q0,-5 5,-5 h117.09375 q5,0 5,5 v32.8 H0 Z" class="node-bkg node-no-border" id="node-13"></path><line y2="37.8" x2="127.09375" y1="37.8" x1="0" class="node-line-1"></line></g><g transform="translate(63.546875, 5)"><text text-anchor="middle" dominant-baseline="middle" alignment-baseline="middle" dy="1em"><tspan dy="1em" x="0">CLI   or   Manifest</tspan></text></g></g><g transform="translate(197.82562700410108, 357.1511942357532)" class="mindmap-node section-1"><g><path d="M0 32.8 v-27.799999999999997 q0,-5 5,-5 h83.109375 q5,0 5,5 v32.8 H0 Z" class="node-bkg node-no-border" id="node-14"></path><line y2="37.8" x2="93.109375" y1="37.8" x1="0" class="node-line-1"></line></g><g transform="translate(46.5546875, 5)"><text text-anchor="middle" dominant-baseline="middle" alignment-baseline="middle" dy="1em"><tspan dy="1em" x="0">Data   Field</tspan></text></g></g><g transform="translate(64.22954355818729, 290.34772579802586)" class="mindmap-node section-1"><g><path d="M0 32.8 v-27.799999999999997 q0,-5 5,-5 h57.90625 q5,0 5,5 v32.8 H0 Z" class="node-bkg node-no-border" id="node-15"></path><line y2="37.8" x2="67.90625" y1="37.8" x1="0" class="node-line-1"></line></g><g transform="translate(33.953125, 5)"><text text-anchor="middle" dominant-baseline="middle" alignment-baseline="middle" dy="1em"><tspan dy="1em" x="0">GitOps</tspan></text></g></g></g></svg>