<svg aria-roledescription="mindmap" viewBox="5 5 965.2098999023438 469.58502197265625" style="max-width: 100%;" xmlns="http://www.w3.org/2000/svg" width="1096px" id="graph-div" height="1360px" xmlns:xlink="http://www.w3.org/1999/xlink"><style>@import url("https://cdnjs.cloudflare.com/ajax/libs/font-awesome/6.2.1/css/all.min.css");'</style><style>#graph-div{font-family:"trebuchet ms",verdana,arial,sans-serif;font-size:16px;fill:#ccc;}#graph-div .error-icon{fill:#a44141;}#graph-div .error-text{fill:#ddd;stroke:#ddd;}#graph-div .edge-thickness-normal{stroke-width:2px;}#graph-div .edge-thickness-thick{stroke-width:3.5px;}#graph-div .edge-pattern-solid{stroke-dasharray:0;}#graph-div .edge-pattern-dashed{stroke-dasharray:3;}#graph-div .edge-pattern-dotted{stroke-dasharray:2;}#graph-div .marker{fill:lightgrey;stroke:lightgrey;}#graph-div .marker.cross{stroke:lightgrey;}#graph-div svg{font-family:"trebuchet ms",verdana,arial,sans-serif;font-size:16px;}#graph-div .edge{stroke-width:3;}#graph-div .section--1 rect,#graph-div .section--1 path,#graph-div .section--1 circle,#graph-div .section--1 polygon,#graph-div .section--1 path{fill:#1f2020;}#graph-div .section--1 text{fill:lightgrey;}#graph-div .node-icon--1{font-size:40px;color:lightgrey;}#graph-div .section-edge--1{stroke:#1f2020;}#graph-div .edge-depth--1{stroke-width:17;}#graph-div .section--1 line{stroke:#e0dfdf;stroke-width:3;}#graph-div .disabled,#graph-div .disabled circle,#graph-div .disabled text{fill:lightgray;}#graph-div .disabled text{fill:#efefef;}#graph-div .section-0 rect,#graph-div .section-0 path,#graph-div .section-0 circle,#graph-div .section-0 polygon,#graph-div .section-0 path{fill:#0b0000;}#graph-div .section-0 text{fill:lightgrey;}#graph-div .node-icon-0{font-size:40px;color:lightgrey;}#graph-div .section-edge-0{stroke:#0b0000;}#graph-div .edge-depth-0{stroke-width:14;}#graph-div .section-0 line{stroke:#f4ffff;stroke-width:3;}#graph-div .disabled,#graph-div .disabled circle,#graph-div .disabled text{fill:lightgray;}#graph-div .disabled text{fill:#efefef;}#graph-div .section-1 rect,#graph-div .section-1 path,#graph-div .section-1 circle,#graph-div .section-1 polygon,#graph-div .section-1 path{fill:#4d1037;}#graph-div .section-1 text{fill:lightgrey;}#graph-div .node-icon-1{font-size:40px;color:lightgrey;}#graph-div .section-edge-1{stroke:#4d1037;}#graph-div .edge-depth-1{stroke-width:11;}#graph-div .section-1 line{stroke:#b2efc8;stroke-width:3;}#graph-div .disabled,#graph-div .disabled circle,#graph-div .disabled text{fill:lightgray;}#graph-div .disabled text{fill:#efefef;}#graph-div .section-2 rect,#graph-div .section-2 path,#graph-div .section-2 circle,#graph-div .section-2 polygon,#graph-div .section-2 path{fill:#3f5258;}#graph-div .section-2 text{fill:lightgrey;}#graph-div .node-icon-2{font-size:40px;color:lightgrey;}#graph-div .section-edge-2{stroke:#3f5258;}#graph-div .edge-depth-2{stroke-width:8;}#graph-div .section-2 line{stroke:#c0ada7;stroke-width:3;}#graph-div .disabled,#graph-div .disabled circle,#graph-div .disabled text{fill:lightgray;}#graph-div .disabled text{fill:#efefef;}#graph-div .section-3 rect,#graph-div .section-3 path,#graph-div .section-3 circle,#graph-div .section-3 polygon,#graph-div .section-3 path{fill:#4f2f1b;}#graph-div .section-3 text{fill:lightgrey;}#graph-div .node-icon-3{font-size:40px;color:lightgrey;}#graph-div .section-edge-3{stroke:#4f2f1b;}#graph-div .edge-depth-3{stroke-width:5;}#graph-div .section-3 line{stroke:#b0d0e4;stroke-width:3;}#graph-div .disabled,#graph-div .disabled circle,#graph-div .disabled text{fill:lightgray;}#graph-div .disabled text{fill:#efefef;}#graph-div .section-4 rect,#graph-div .section-4 path,#graph-div .section-4 circle,#graph-div .section-4 polygon,#graph-div .section-4 path{fill:#6e0a0a;}#graph-div .section-4 text{fill:lightgrey;}#graph-div .node-icon-4{font-size:40px;color:lightgrey;}#graph-div .section-edge-4{stroke:#6e0a0a;}#graph-div .edge-depth-4{stroke-width:2;}#graph-div .section-4 line{stroke:#91f5f5;stroke-width:3;}#graph-div .disabled,#graph-div .disabled circle,#graph-div .disabled text{fill:lightgray;}#graph-div .disabled text{fill:#efefef;}#graph-div .section-5 rect,#graph-div .section-5 path,#graph-div .section-5 circle,#graph-div .section-5 polygon,#graph-div .section-5 path{fill:#3b0048;}#graph-div .section-5 text{fill:lightgrey;}#graph-div .node-icon-5{font-size:40px;color:lightgrey;}#graph-div .section-edge-5{stroke:#3b0048;}#graph-div .edge-depth-5{stroke-width:-1;}#graph-div .section-5 line{stroke:#c4ffb7;stroke-width:3;}#graph-div .disabled,#graph-div .disabled circle,#graph-div .disabled text{fill:lightgray;}#graph-div .disabled text{fill:#efefef;}#graph-div .section-6 rect,#graph-div .section-6 path,#graph-div .section-6 circle,#graph-div .section-6 polygon,#graph-div .section-6 path{fill:#995a01;}#graph-div .section-6 text{fill:lightgrey;}#graph-div .node-icon-6{font-size:40px;color:lightgrey;}#graph-div .section-edge-6{stroke:#995a01;}#graph-div .edge-depth-6{stroke-width:-4;}#graph-div .section-6 line{stroke:#66a5fe;stroke-width:3;}#graph-div .disabled,#graph-div .disabled circle,#graph-div .disabled text{fill:lightgray;}#graph-div .disabled text{fill:#efefef;}#graph-div .section-7 rect,#graph-div .section-7 path,#graph-div .section-7 circle,#graph-div .section-7 polygon,#graph-div .section-7 path{fill:#154706;}#graph-div .section-7 text{fill:lightgrey;}#graph-div .node-icon-7{font-size:40px;color:lightgrey;}#graph-div .section-edge-7{stroke:#154706;}#graph-div .edge-depth-7{stroke-width:-7;}#graph-div .section-7 line{stroke:#eab8f9;stroke-width:3;}#graph-div .disabled,#graph-div .disabled circle,#graph-div .disabled text{fill:lightgray;}#graph-div .disabled text{fill:#efefef;}#graph-div .section-8 rect,#graph-div .section-8 path,#graph-div .section-8 circle,#graph-div .section-8 polygon,#graph-div .section-8 path{fill:#161722;}#graph-div .section-8 text{fill:lightgrey;}#graph-div .node-icon-8{font-size:40px;color:lightgrey;}#graph-div .section-edge-8{stroke:#161722;}#graph-div .edge-depth-8{stroke-width:-10;}#graph-div .section-8 line{stroke:#e9e8dd;stroke-width:3;}#graph-div .disabled,#graph-div .disabled circle,#graph-div .disabled text{fill:lightgray;}#graph-div .disabled text{fill:#efefef;}#graph-div .section-9 rect,#graph-div .section-9 path,#graph-div .section-9 circle,#graph-div .section-9 polygon,#graph-div .section-9 path{fill:#00296f;}#graph-div .section-9 text{fill:lightgrey;}#graph-div .node-icon-9{font-size:40px;color:lightgrey;}#graph-div .section-edge-9{stroke:#00296f;}#graph-div .edge-depth-9{stroke-width:-13;}#graph-div .section-9 line{stroke:#ffd690;stroke-width:3;}#graph-div .disabled,#graph-div .disabled circle,#graph-div .disabled text{fill:lightgray;}#graph-div .disabled text{fill:#efefef;}#graph-div .section-10 rect,#graph-div .section-10 path,#graph-div .section-10 circle,#graph-div .section-10 polygon,#graph-div .section-10 path{fill:#01629c;}#graph-div .section-10 text{fill:lightgrey;}#graph-div .node-icon-10{font-size:40px;color:lightgrey;}#graph-div .section-edge-10{stroke:#01629c;}#graph-div .edge-depth-10{stroke-width:-16;}#graph-div .section-10 line{stroke:#fe9d63;stroke-width:3;}#graph-div .disabled,#graph-div .disabled circle,#graph-div .disabled text{fill:lightgray;}#graph-div .disabled text{fill:#efefef;}#graph-div .section-root rect,#graph-div .section-root path,#graph-div .section-root circle,#graph-div .section-root polygon{fill:hsl(180, 1.5873015873%, 48.3529411765%);}#graph-div .section-root text{fill:undefined;}#graph-div .icon-container{height:100%;display:flex;justify-content:center;align-items:center;}#graph-div .edge{fill:none;}#graph-div :root{--mermaid-font-family:"trebuchet ms",verdana,arial,sans-serif;}</style><g></g><g></g><g class="mindmap-edges"><path class="edge section-edge--1 edge-depth-1" d="M 664.7411916660325,215.04409832295954 L 703.2844808168447,240.76520032035737 L741.827769967657,266.4863023177552"></path><path class="edge section-edge--1 edge-depth-1" d="M 653.5560386858344,191.77359109212932 L 656.2313005348442,160.82414351337724 L658.906562383854,129.8746959346251"></path><path class="edge section-edge--1 edge-depth-1" d="M 667.2320716714855,207.7000081982559 L 757.7917557254066,213.64226782955535 L848.3514397793276,219.58452746085487"></path><path class="edge section-edge--1 edge-depth-1" d="M 665.9154073532674,200.50126017606664 L 731.2125732449836,170.76554457887366 L796.5097391366997,141.02982898168068"></path><path class="edge section-edge--1 edge-depth-0" d="M 462.1949616401023,237.9697237948945 L 549.8289818707186,223.56063143530704 L637.463002101335,209.1515390757196"></path><path class="edge section-edge-0 edge-depth-0" d="M 460.62977542398284,247.46076425865857 L 537.7676457609305,288.59005071358706 L614.905516097878,329.7193371685156"></path><path class="edge section-edge-1 edge-depth-1" d="M 440.70724483949306,340.24400556704063 L 477.62344134598993,315.13848526551544 L514.5396378524867,290.03296496399025"></path><path class="edge section-edge-1 edge-depth-1" d="M 431.8304224662411,363.2587552222841 L 440.0362473489313,397.182132638373 L448.2420722316215,431.1055100544619"></path><path class="edge section-edge-1 edge-depth-1" d="M 415.1329620791994,355.85771608886654 L 365.3868583988477,382.97089457042335 L315.64075471849605,410.08407305198017"></path><path class="edge section-edge-1 edge-depth-1" d="M 441.88467155149635,355.04776926873933 L 496.07453232003616,380.459143359271 L550.264393088576,405.8705174498027"></path><path class="edge section-edge-1 edge-depth-1" d="M 413.31170133615797,348.190551605558 L 355.040031719628,346.29112930299317 L296.76836210309807,344.3917070004283"></path><path class="edge section-edge-1 edge-depth-0" d="M 444.78924407436637,255.17556100992584 L 437.8487214684236,294.5413150917316 L430.90819886248084,333.9070691735373"></path><path class="edge section-edge-2 edge-depth-1" d="M 236.4625745929464,271.56848428909956 L 284.56943059770526,274.75683146423796 L332.67628660246413,277.94517863937637"></path><path class="edge section-edge-2 edge-depth-1" d="M 232.616101696976,260.5102234103857 L 259.89773584651584,235.8152752675428 L287.1793699960557,211.1203271246999"></path><path class="edge section-edge-2 edge-depth-1" d="M 206.84647805150428,273.80277842440717 L 140.8492678116886,288.33792440904034 L74.85205757187293,302.8730703936735"></path><path class="edge section-edge-2 edge-depth-1" d="M 213.88235510382037,283.50096432594887 L 195.60571785187312,314.52864671515493 L177.32908059992587,345.556329104361"></path><path class="edge section-edge-2 edge-depth-1" d="M 207.1587168389091,266.1652555745725 L 145.2979555574446,247.1313080220866 L83.43719427598009,228.0973604696008"></path><path class="edge section-edge-2 edge-depth-1" d="M 214.36630885248036,257.37894313554267 L 198.68279027335382,228.34522008699602 L182.99927169422728,199.31149703844935"></path><path class="edge section-edge-2 edge-depth-0" d="M 432.5257458335998,242.38930377592894 L 334.4445573075004,255.48995678517304 L236.36336878140102,268.59060979441716"></path><path class="edge section-edge-3 edge-depth-1" d="M 379.8492825357649,125.17658366368431 L 321.4410060263789,97.459496610765 L263.03272951699284,69.74240955784569"></path><path class="edge section-edge-3 edge-depth-1" d="M 394.98021688149544,116.69073126908512 L 398.57344248212405,82.75367686086858 L402.16666808275266,48.81662245265203"></path><path class="edge section-edge-3 edge-depth-1" d="M 378.4025200924418,131.38405743694486 L 332.25128664830845,130.69695470208708 L286.1000532041751,130.0098519672293"></path><path class="edge section-edge-3 edge-depth-1" d="M 407.24713593234424,125.83842086600924 L 463.7431808367709,102.29982874017387 L520.2392257411975,78.76123661433849"></path><path class="edge section-edge-3 edge-depth-1" d="M 407.84852565309814,135.6403300680997 L 457.5200277499688,149.50582014518133 L507.19152984683944,163.37131022226296"></path><path class="edge section-edge-3 edge-depth-0" d="M 440.7255614951794,226.9670344580926 L 420.3972809754746,186.00537605468622 L400.06900045576975,145.0437176512798"></path></g><g class="mindmap-nodes"><g transform="translate(366.6983914916236, 221.50339838763523)" class="mindmap-node section-root"><g><path d="M0 0 a24.20859375,24.20859375 0 0,1 40.34765625,-16.1390625
      a56.486718749999994,56.486718749999994 1 0,1 64.55625,-16.1390625
      a40.34765625,40.34765625 1 0,1 56.486718749999994,32.278125

      a24.20859375,24.20859375 1 0,1 24.20859375,13.229999999999999
      a32.278125,32.278125 1 0,1 -24.20859375,24.57

      a40.34765625,24.20859375 1 0,1 -40.34765625,24.20859375
      a56.486718749999994,56.486718749999994 1 0,1 -80.6953125,0
      a24.20859375,24.20859375 1 0,1 -40.34765625,-24.20859375

      a24.20859375,24.20859375 1 0,1 -16.1390625,-13.229999999999999
      a32.278125,32.278125 1 0,1 16.1390625,-24.57

    H0 V0 Z" class="node-bkg node-cloud" id="node-0"></path></g><g transform="translate(80.6953125, 5)"><text text-anchor="middle" dominant-baseline="middle" alignment-baseline="middle" dy="1em"><tspan dy="1em" x="0">kubernetes   security</tspan></text></g></g><g transform="translate(599.8970722498136, 187.81786448297885)" class="mindmap-node section-root"><g><path d="M0 32.8 v-27.799999999999997 q0,-5 5,-5 h94.734375 q5,0 5,5 v32.8 H0 Z" class="node-bkg node-no-border" id="node-1"></path><line y2="37.8" x2="104.734375" y1="37.8" x1="0" class="node-line--1"></line></g><g transform="translate(52.3671875, 5)"><text text-anchor="middle" dominant-baseline="middle" alignment-baseline="middle" dy="1em"><tspan dy="1em" x="0">Governance</tspan></text></g></g><g transform="translate(676.3125143838759, 255.91253615773584)" class="mindmap-node section-root"><g><path d="M0 32.8 v-27.799999999999997 q0,-5 5,-5 h145.984375 q5,0 5,5 v32.8 H0 Z" class="node-bkg node-no-border" id="node-2"></path><line y2="37.8" x2="155.984375" y1="37.8" x1="0" class="node-line--1"></line></g><g transform="translate(77.9921875, 5)"><text text-anchor="middle" dominant-baseline="middle" alignment-baseline="middle" dy="1em"><tspan dy="1em" x="0">Everything   as   Code</tspan></text></g></g><g transform="translate(609.1983413198748, 96.03042254377556)" class="mindmap-node section-root"><g><path d="M0 32.8 v-27.799999999999997 q0,-5 5,-5 h92 q5,0 5,5 v32.8 H0 Z" class="node-bkg node-no-border" id="node-3"></path><line y2="37.8" x2="102" y1="37.8" x1="0" class="node-line--1"></line></g><g transform="translate(51, 5)"><text text-anchor="middle" dominant-baseline="middle" alignment-baseline="middle" dy="1em"><tspan dy="1em" x="0">Regulations</tspan></text></g></g><g transform="translate(766.4286267009995, 201.6666711761319)" class="mindmap-node section-root"><g><path d="M0 32.8 v-27.799999999999997 q0,-5 5,-5 h183.78125 q5,0 5,5 v32.8 H0 Z" class="node-bkg node-no-border" id="node-4"></path><line y2="37.8" x2="193.78125" y1="37.8" x1="0" class="node-line--1"></line></g><g transform="translate(96.890625, 5)"><text text-anchor="middle" dominant-baseline="middle" alignment-baseline="middle" dy="1em"><tspan dy="1em" x="0">Business   Continuity   Plan</tspan></text></g></g><g transform="translate(742.0671367401535, 107.11322543770791)" class="mindmap-node section-root"><g><path d="M0 50.39999847412109 v-45.39999847412109 q0,-5 5,-5 h126.1875 q5,0 5,5 v50.39999847412109 H0 Z" class="node-bkg node-no-border" id="node-5"></path><line y2="55.39999847412109" x2="136.1875" y1="55.39999847412109" x1="0" class="node-line--1"></line></g><g transform="translate(68.09375, 5)"><text text-anchor="middle" dominant-baseline="middle" alignment-baseline="middle" dy="1em"><tspan dy="1em" x="0">Security   Posture</tspan><tspan dy="1.1em" x="0">Management</tspan></text></g></g><g transform="translate(519.7431500302373, 309.0767038024784)" class="mindmap-node section-0"><g><path d="M0 50.39999847412109 v-45.39999847412109 q0,-5 5,-5 h206.796875 q5,0 5,5 v50.39999847412109 H0 Z" class="node-bkg node-no-border" id="node-6"></path><line y2="55.39999847412109" x2="216.796875" y1="55.39999847412109" x1="0" class="node-line-0"></line></g><g transform="translate(108.3984375, 5)"><text text-anchor="middle" dominant-baseline="middle" alignment-baseline="middle" dy="1em"><tspan dy="1em" x="0">Identity   Access   Entiltement</tspan><tspan dy="1.1em" x="0">Management</tspan></text></g></g><g transform="translate(368.5693639452236, 329.77923179582797)" class="mindmap-node section-1"><g><path d="M0 32.8 v-27.799999999999997 q0,-5 5,-5 h109.46875 q5,0 5,5 v32.8 H0 Z" class="node-bkg node-no-border" id="node-7"></path><line y2="37.8" x2="119.46875" y1="37.8" x1="0" class="node-line-1"></line></g><g transform="translate(59.734375, 5)"><text text-anchor="middle" dominant-baseline="middle" alignment-baseline="middle" dy="1em"><tspan dy="1em" x="0">Infrastructure</tspan></text></g></g><g transform="translate(453.9587687467563, 262.69773873520296)" class="mindmap-node section-1"><g><path d="M0 32.8 v-27.799999999999997 q0,-5 5,-5 h135.96875 q5,0 5,5 v32.8 H0 Z" class="node-bkg node-no-border" id="node-8"></path><line y2="37.8" x2="145.96875" y1="37.8" x1="0" class="node-line-1"></line></g><g transform="translate(72.984375, 5)"><text text-anchor="middle" dominant-baseline="middle" alignment-baseline="middle" dy="1em"><tspan dy="1em" x="0">Operating   System</tspan></text></g></g><g transform="translate(405.362505752639, 426.78503348091806)" class="mindmap-node section-1"><g><path d="M0 32.8 v-27.799999999999997 q0,-5 5,-5 h82.8125 q5,0 5,5 v32.8 H0 Z" class="node-bkg node-no-border" id="node-9"></path><line y2="37.8" x2="92.8125" y1="37.8" x1="0" class="node-line-1"></line></g><g transform="translate(46.40625, 5)"><text text-anchor="middle" dominant-baseline="middle" alignment-baseline="middle" dy="1em"><tspan dy="1em" x="0">Hardening</tspan></text></g></g><g transform="translate(224.11841535247186, 398.3625573450188)" class="mindmap-node section-1"><g><path d="M0 32.8 v-27.799999999999997 q0,-5 5,-5 h146.703125 q5,0 5,5 v32.8 H0 Z" class="node-bkg node-no-border" id="node-10"></path><line y2="37.8" x2="156.703125" y1="37.8" x1="0" class="node-line-1"></line></g><g transform="translate(78.3515625, 5)"><text text-anchor="middle" dominant-baseline="middle" alignment-baseline="middle" dy="1em"><tspan dy="1em" x="0">Patching   Life   Cycle</tspan></text></g></g><g transform="translate(523.8140756948487, 393.3390549227141)" class="mindmap-node section-1"><g><path d="M0 32.8 v-27.799999999999997 q0,-5 5,-5 h70.0625 q5,0 5,5 v32.8 H0 Z" class="node-bkg node-no-border" id="node-11"></path><line y2="37.8" x2="80.0625" y1="37.8" x1="0" class="node-line-1"></line></g><g transform="translate(40.03125, 5)"><text text-anchor="middle" dominant-baseline="middle" alignment-baseline="middle" dy="1em"><tspan dy="1em" x="0">Network</tspan></text></g></g><g transform="translate(244.76851199403245, 325.0030268101584)" class="mindmap-node section-1"><g><path d="M0 32.8 v-27.799999999999997 q0,-5 5,-5 h64.015625 q5,0 5,5 v32.8 H0 Z" class="node-bkg node-no-border" id="node-12"></path><line y2="37.8" x2="74.015625" y1="37.8" x1="0" class="node-line-1"></line></g><g transform="translate(37.0078125, 5)"><text text-anchor="middle" dominant-baseline="middle" alignment-baseline="middle" dy="1em"><tspan dy="1em" x="0">Storage</tspan></text></g></g><g transform="translate(166.0032231233772, 251.67651518271086)" class="mindmap-node section-2"><g><path d="M0 32.8 v-27.799999999999997 q0,-5 5,-5 h100.984375 q5,0 5,5 v32.8 H0 Z" class="node-bkg node-no-border" id="node-13"></path><line y2="37.8" x2="110.984375" y1="37.8" x1="0" class="node-line-2"></line></g><g transform="translate(55.4921875, 5)"><text text-anchor="middle" dominant-baseline="middle" alignment-baseline="middle" dy="1em"><tspan dy="1em" x="0">Orchestrator</tspan></text></g></g><g transform="translate(326.2372005720333, 260.0371477457651)" class="mindmap-node section-2"><g><path d="M0 32.8 v-27.799999999999997 q0,-5 5,-5 h32.8125 q5,0 5,5 v32.8 H0 Z" class="node-bkg node-no-border" id="node-14"></path><line y2="37.8" x2="42.8125" y1="37.8" x1="0" class="node-line-2"></line></g><g transform="translate(21.40625, 5)"><text text-anchor="middle" dominant-baseline="middle" alignment-baseline="middle" dy="1em"><tspan dy="1em" x="0">API</tspan></text></g></g><g transform="translate(272.3469360696545, 182.15403535237476)" class="mindmap-node section-2"><g><path d="M0 32.8 v-27.799999999999997 q0,-5 5,-5 h41.90625 q5,0 5,5 v32.8 H0 Z" class="node-bkg node-no-border" id="node-15"></path><line y2="37.8" x2="51.90625" y1="37.8" x1="0" class="node-line-2"></line></g><g transform="translate(25.953125, 5)"><text text-anchor="middle" dominant-baseline="middle" alignment-baseline="middle" dy="1em"><tspan dy="1em" x="0">etcd</tspan></text></g></g><g transform="translate(15, 287.19933363536984)" class="mindmap-node section-2"><g><path d="M0 32.8 v-27.799999999999997 q0,-5 5,-5 h80.40625 q5,0 5,5 v32.8 H0 Z" class="node-bkg node-no-border" id="node-16"></path><line y2="37.8" x2="90.40625" y1="37.8" x1="0" class="node-line-2"></line></g><g transform="translate(45.203125, 5)"><text text-anchor="middle" dominant-baseline="middle" alignment-baseline="middle" dy="1em"><tspan dy="1em" x="0">Scheduler</tspan></text></g></g><g transform="translate(129.68477508036904, 339.580778247599)" class="mindmap-node section-2"><g><path d="M0 32.8 v-27.799999999999997 q0,-5 5,-5 h70.0625 q5,0 5,5 v32.8 H0 Z" class="node-bkg node-no-border" id="node-17"></path><line y2="37.8" x2="80.0625" y1="37.8" x1="0" class="node-line-2"></line></g><g transform="translate(40.03125, 5)"><text text-anchor="middle" dominant-baseline="middle" alignment-baseline="middle" dy="1em"><tspan dy="1em" x="0">Network</tspan></text></g></g><g transform="translate(30.63956299151198, 204.7861008614624)" class="mindmap-node section-2"><g><path d="M0 32.8 v-27.799999999999997 q0,-5 5,-5 h66.921875 q5,0 5,5 v32.8 H0 Z" class="node-bkg node-no-border" id="node-18"></path><line y2="37.8" x2="76.921875" y1="37.8" x1="0" class="node-line-2"></line></g><g transform="translate(38.4609375, 5)"><text text-anchor="middle" dominant-baseline="middle" alignment-baseline="middle" dy="1em"><tspan dy="1em" x="0">Registry</tspan></text></g></g><g transform="translate(139.81548242333042, 167.21392499128115)" class="mindmap-node section-2"><g><path d="M0 32.8 v-27.799999999999997 q0,-5 5,-5 h62.109375 q5,0 5,5 v32.8 H0 Z" class="node-bkg node-no-border" id="node-19"></path><line y2="37.8" x2="72.109375" y1="37.8" x1="0" class="node-line-2"></line></g><g transform="translate(36.0546875, 5)"><text text-anchor="middle" dominant-baseline="middle" alignment-baseline="middle" dy="1em"><tspan dy="1em" x="0">Secrets</tspan></text></g></g><g transform="translate(348.44773295932555, 112.70735372173715)" class="mindmap-node section-3"><g><path d="M0 32.8 v-27.799999999999997 q0,-5 5,-5 h79.90625 q5,0 5,5 v32.8 H0 Z" class="node-bkg node-no-border" id="node-20"></path><line y2="37.8" x2="89.90625" y1="37.8" x1="0" class="node-line-3"></line></g><g transform="translate(44.953125, 5)"><text text-anchor="middle" dominant-baseline="middle" alignment-baseline="middle" dy="1em"><tspan dy="1em" x="0">Container</tspan></text></g></g><g transform="translate(199.28584159343222, 44.41163949979284)" class="mindmap-node section-3"><g><path d="M0 32.8 v-27.799999999999997 q0,-5 5,-5 h90.390625 q5,0 5,5 v32.8 H0 Z" class="node-bkg node-no-border" id="node-21"></path><line y2="37.8" x2="100.390625" y1="37.8" x1="0" class="node-line-3"></line></g><g transform="translate(50.1953125, 5)"><text text-anchor="middle" dominant-baseline="middle" alignment-baseline="middle" dy="1em"><tspan dy="1em" x="0">Base   Image</tspan></text></g></g><g transform="translate(325.39446450492255, 15)" class="mindmap-node section-3"><g><path d="M0 32.8 v-27.799999999999997 q0,-5 5,-5 h146.703125 q5,0 5,5 v32.8 H0 Z" class="node-bkg node-no-border" id="node-22"></path><line y2="37.8" x2="156.703125" y1="37.8" x1="0" class="node-line-3"></line></g><g transform="translate(78.3515625, 5)"><text text-anchor="middle" dominant-baseline="middle" alignment-baseline="middle" dy="1em"><tspan dy="1em" x="0">Patching   Life   Cycle</tspan></text></g></g><g transform="translate(243.20327783729135, 110.886555682437)" class="mindmap-node section-3"><g><path d="M0 32.8 v-27.799999999999997 q0,-5 5,-5 h45.796875 q5,0 5,5 v32.8 H0 Z" class="node-bkg node-no-border" id="node-23"></path><line y2="37.8" x2="55.796875" y1="37.8" x1="0" class="node-line-3"></line></g><g transform="translate(27.8984375, 5)"><text text-anchor="middle" dominant-baseline="middle" alignment-baseline="middle" dy="1em"><tspan dy="1em" x="0">Code</tspan></text></g></g><g transform="translate(492.5464412142162, 54.092303758610576)" class="mindmap-node section-3"><g><path d="M0 32.8 v-27.799999999999997 q0,-5 5,-5 h73.078125 q5,0 5,5 v32.8 H0 Z" class="node-bkg node-no-border" id="node-24"></path><line y2="37.8" x2="83.078125" y1="37.8" x1="0" class="node-line-3"></line></g><g transform="translate(41.5390625, 5)"><text text-anchor="middle" dominant-baseline="middle" alignment-baseline="middle" dy="1em"><tspan dy="1em" x="0">Mutation</tspan></text></g></g><g transform="translate(485.58451004061203, 148.5042865686255)" class="mindmap-node section-3"><g><path d="M0 32.8 v-27.799999999999997 q0,-5 5,-5 h62.109375 q5,0 5,5 v32.8 H0 Z" class="node-bkg node-no-border" id="node-25"></path><line y2="37.8" x2="72.109375" y1="37.8" x1="0" class="node-line-3"></line></g><g transform="translate(36.0546875, 5)"><text text-anchor="middle" dominant-baseline="middle" alignment-baseline="middle" dy="1em"><tspan dy="1em" x="0">Secrets</tspan></text></g></g></g></svg>